<svg xmlns="http://www.w3.org/2000/svg" xmlns:xlink="http://www.w3.org/1999/xlink" version="1.1" id="Layer_1" x="0px" y="0px" width="100px" height="100px" viewBox="0 0 100 100" enable-background="new 0 0 100 100" xml:space="preserve">
<path d="M82.521,2.01H17.37c-9.113,0-16.5,7.189-16.5,16.056v46.494c0,8.869,7.387,16.059,16.5,16.059L16.504,97.99l15.852-17.371  h50.166c9.113,0,16.5-7.189,16.5-16.059V18.066C99.021,9.199,91.635,2.01,82.521,2.01z M80.347,57.838  c0,5.494-4.578,9.947-10.222,9.947H29.766c-5.645,0-10.222-4.453-10.222-9.947V29.036c0-5.493,4.577-9.945,10.222-9.945h31.076  l9.821-10.763l-0.538,10.763c5.644,0,10.222,4.452,10.222,9.945V57.838z"/>
<path d="M69.937,52.457c0,3.613-3.008,6.541-6.72,6.541H42.781l-6.459,7.078l0.353-7.078c-3.713,0-6.721-2.928-6.721-6.541V33.518  c0-3.613,3.008-6.542,6.721-6.542h26.542c3.712,0,6.72,2.928,6.72,6.542V52.457z"/>
</svg>